#tb 0: 32768/785647
0,          0,          0,        1,   276480, 0x5f7a0d4f
0,          1,          1,        1,   276480, 0x5f7a0d4f
0,          2,          2,        1,   276480, 0x5f7a0d4f
0,          3,          3,        1,   276480, 0x5f7a0d4f
0,          4,          4,        1,   276480, 0x5f7a0d4f
0,          5,          5,        1,   276480, 0x5f7a0d4f
0,          6,          6,        1,   276480, 0x5f7a0d4f
0,          7,          7,        1,   276480, 0x5f7a0d4f
0,          8,          8,        1,   276480, 0x5f7a0d4f
0,          9,          9,        1,   276480, 0x5f7a0d4f
0,         10,         10,        1,   276480, 0x5f7a0d4f
0,         11,         11,        1,   276480, 0x5f7a0d4f
0,         12,         12,        1,   276480, 0x5f7a0d4f
0,         13,         13,        1,   276480, 0x5f7a0d4f
0,         14,         14,        1,   276480, 0x5f7a0d4f
0,         15,         15,        1,   276480, 0x5f7a0d4f
0,         16,         16,        1,   276480, 0x5f7a0d4f
0,         17,         17,        1,   276480, 0x5f7a0d4f
0,         18,         18,        1,   276480, 0x5f7a0d4f
0,         19,         19,        1,   276480, 0x5f7a0d4f
0,         20,         20,        1,   276480, 0x5f7a0d4f
0,         21,         21,        1,   276480, 0x5f7a0d4f
0,         22,         22,        1,   276480, 0x5f7a0d4f
0,         23,         23,        1,   276480, 0x5f7a0d4f
0,         24,         24,        1,   276480, 0x5f7a0d4f
0,         25,         25,        1,   276480, 0x5f7a0d4f
0,         26,         26,        1,   276480, 0x5f7a0d4f
0,         27,         27,        1,   276480, 0x5f7a0d4f
0,         28,         28,        1,   276480, 0x5f7a0d4f
0,         29,         29,        1,   276480, 0x5f7a0d4f
0,         30,         30,        1,   276480, 0x5f7a0d4f
0,         31,         31,        1,   276480, 0x5f7a0d4f
0,         32,         32,        1,   276480, 0x5f7a0d4f
0,         33,         33,        1,   276480, 0x75641594
0,         34,         34,        1,   276480, 0x32ee3526
0,         35,         35,        1,   276480, 0xcb53479a
0,         36,         36,        1,   276480, 0x7ca9658e
0,         37,         37,        1,   276480, 0x5ce39368
0,         38,         38,        1,   276480, 0x4ec1e418
0,         39,         39,        1,   276480, 0xb3790499
0,         40,         40,        1,   276480, 0xa9f1506f
0,         41,         41,        1,   276480, 0x85cbc3b5
0,         42,         42,        1,   276480, 0x377c7b46
0,         43,         43,        1,   276480, 0x1a61d8db
0,         44,         44,        1,   276480, 0xe1de7f0a
0,         45,         45,        1,   276480, 0x756a4a2e
0,         46,         46,        1,   276480, 0xcb379547
0,         47,         47,        1,   276480, 0xbae14484
0,         48,         48,        1,   276480, 0x8e12331c
0,         49,         49,        1,   276480, 0x99c085be
0,         50,         50,        1,   276480, 0xe479ffed
0,         51,         51,        1,   276480, 0x99c82949
0,         52,         52,        1,   276480, 0xac7672dd
0,         53,         53,        1,   276480, 0x1e4fae19
0,         54,         54,        1,   276480, 0x776412ef
0,         55,         55,        1,   276480, 0x7d9b579f
0,         56,         56,        1,   276480, 0x1cd1ab29
0,         57,         57,        1,   276480, 0x58ce0f38
0,         58,         58,        1,   276480, 0x5ab69b27
0,         59,         59,        1,   276480, 0x0afad610
0,         60,         60,        1,   276480, 0x9eca3f11
0,         61,         61,        1,   276480, 0xc3db9706
0,         62,         62,        1,   276480, 0xc9c57884
0,         63,         63,        1,   276480, 0xd9fbb2cf
0,         64,         64,        1,   276480, 0xdc07f3c9
0,         65,         65,        1,   276480, 0x000b5269
0,         66,         66,        1,   276480, 0x27ff7a5d
0,         67,         67,        1,   276480, 0xd92e2017
0,         68,         68,        1,   276480, 0x18d4b27d
0,         69,         69,        1,   276480, 0x70647530
0,         70,         70,        1,   276480, 0x97612c4b
0,         71,         71,        1,   276480, 0xc9d4ac78
0,         72,         72,        1,   276480, 0x4ec4d57f
0,         73,         73,        1,   276480, 0xdf4e04d7
0,         74,         74,        1,   276480, 0xbd98f57c
0,         75,         75,        1,   276480, 0x7247ea3e
0,         76,         76,        1,   276480, 0xa5d670ec
0,         77,         77,        1,   276480, 0x5163b29b
0,         78,         78,        1,   276480, 0x99170e64
0,         79,         79,        1,   276480, 0x37f4c0b0
0,         80,         80,        1,   276480, 0x7a4f2561
0,         81,         81,        1,   276480, 0x8a4e991f
0,         82,         82,        1,   276480, 0x6a45425f
0,         83,         83,        1,   276480, 0x1f0e2bb6
0,         84,         84,        1,   276480, 0xd75482c6
0,         85,         85,        1,   276480, 0x7bf6b1ef
0,         86,         86,        1,   276480, 0x6de1e34b
0,         87,         87,        1,   276480, 0x4526c89b
0,         88,         88,        1,   276480, 0xf964e18e
0,         89,         89,        1,   276480, 0xdcaaa99a
0,         90,         90,        1,   276480, 0xd1e98808
0,         91,         91,        1,   276480, 0x556b2365
0,         92,         92,        1,   276480, 0x0cf65540
0,         93,         93,        1,   276480, 0x6e2d524e
0,         94,         94,        1,   276480, 0x22c50a3d
0,         95,         95,        1,   276480, 0x293f19af
0,         96,         96,        1,   276480, 0xf4b1c461
0,         97,         97,        1,   276480, 0x62b76407
0,         98,         98,        1,   276480, 0x51e9b3eb
0,         99,         99,        1,   276480, 0x7b910bc7
0,        100,        100,        1,   276480, 0x6dd14ca6
0,        101,        101,        1,   276480, 0x441f7afd
0,        102,        102,        1,   276480, 0xfb01efc6
0,        103,        103,        1,   276480, 0x4f73ccea
0,        104,        104,        1,   276480, 0x5ac8e06f
0,        105,        105,        1,   276480, 0x294bb441
0,        106,        106,        1,   276480, 0xe04ac45e
0,        107,        107,        1,   276480, 0xa7a38d41
0,        108,        108,        1,   276480, 0xf688a3ed
0,        109,        109,        1,   276480, 0x58f275ea
0,        110,        110,        1,   276480, 0xf0b3b71b
0,        111,        111,        1,   276480, 0x3ce773bf
0,        112,        112,        1,   276480, 0x01840548
0,        113,        113,        1,   276480, 0x674e34e4
0,        114,        114,        1,   276480, 0x41dda2d9
0,        115,        115,        1,   276480, 0xc5b60838
0,        116,        116,        1,   276480, 0x9b209f41
0,        117,        117,        1,   276480, 0xf46ba7fb
0,        118,        118,        1,   276480, 0x28b54815
0,        119,        119,        1,   276480, 0xb605a933
0,        120,        120,        1,   276480, 0x34484aff
0,        121,        121,        1,   276480, 0xaf2b5d89
0,        122,        122,        1,   276480, 0x8facba58
0,        123,        123,        1,   276480, 0xbbe3e99f
0,        124,        124,        1,   276480, 0x02162c7c
0,        125,        125,        1,   276480, 0x28a63236
0,        126,        126,        1,   276480, 0x1ad43fd7
0,        127,        127,        1,   276480, 0xe37883e5
0,        128,        128,        1,   276480, 0x2b8a89c5
0,        129,        129,        1,   276480, 0x71507bd2
0,        130,        130,        1,   276480, 0x35626022
0,        131,        131,        1,   276480, 0x461fc3e7
0,        132,        132,        1,   276480, 0xce5af1ec
0,        133,        133,        1,   276480, 0x7c1139b3
0,        134,        134,        1,   276480, 0x7fd73a99
0,        135,        135,        1,   276480, 0x4ae4c3a6
0,        136,        136,        1,   276480, 0xcb60725a
0,        137,        137,        1,   276480, 0xb52e1aa2
0,        138,        138,        1,   276480, 0xd6f82cae
0,        139,        139,        1,   276480, 0x6310e665
0,        140,        140,        1,   276480, 0xfa88a483
0,        141,        141,        1,   276480, 0xf88f75d4
0,        142,        142,        1,   276480, 0x04a8e3ee
0,        143,        143,        1,   276480, 0x54766a12
0,        144,        144,        1,   276480, 0x0b41f0d7
0,        145,        145,        1,   276480, 0xa29f5b01
0,        146,        146,        1,   276480, 0x754ceaf5
0,        147,        147,        1,   276480, 0x150c0423
0,        148,        148,        1,   276480, 0xde084059
0,        149,        149,        1,   276480, 0x5a38b4af
0,        150,        150,        1,   276480, 0xfcebc261
0,        151,        151,        1,   276480, 0x0eb9770d
0,        152,        152,        1,   276480, 0x046394ae
0,        153,        153,        1,   276480, 0x3d3ca985
0,        154,        154,        1,   276480, 0x94a03c75
0,        155,        155,        1,   276480, 0x800eea2d
0,        156,        156,        1,   276480, 0x6a841f41
0,        157,        157,        1,   276480, 0x2f98911c
0,        158,        158,        1,   276480, 0x923b9937
0,        159,        159,        1,   276480, 0xe82f8e0f
0,        160,        160,        1,   276480, 0xee82d657
0,        161,        161,        1,   276480, 0xefab7ffd
0,        162,        162,        1,   276480, 0x6b9fbc80
0,        163,        163,        1,   276480, 0x4a1ada47
0,        164,        164,        1,   276480, 0x6d4b49d7
0,        165,        165,        1,   276480, 0xe4bdbd1e
0,        166,        166,        1,   276480, 0x225a56c0
0,        167,        167,        1,   276480, 0xd4adadad
0,        168,        168,        1,   276480, 0xff4e1a8c
0,        169,        169,        1,   276480, 0xf58b1b7c
0,        170,        170,        1,   276480, 0xbaffcdcc
0,        171,        171,        1,   276480, 0x374f88f0
0,        172,        172,        1,   276480, 0x3d861ae6
0,        173,        173,        1,   276480, 0xeb6eb88f
0,        174,        174,        1,   276480, 0xdb753d35
0,        175,        175,        1,   276480, 0x9aa543af
0,        176,        176,        1,   276480, 0xb24c8016
0,        177,        177,        1,   276480, 0xea80a82e
0,        178,        178,        1,   276480, 0x2aae902a
0,        179,        179,        1,   276480, 0x5bba3cfb
0,        180,        180,        1,   276480, 0x5c6e97a9
0,        181,        181,        1,   276480, 0x9b9ee961
0,        182,        182,        1,   276480, 0xaa12b6fd
0,        183,        183,        1,   276480, 0xe9d2439f
0,        184,        184,        1,   276480, 0xbf09053c
0,        185,        185,        1,   276480, 0x50c31e73
0,        186,        186,        1,   276480, 0xdd9fb89f
0,        187,        187,        1,   276480, 0x3e4e5aec
0,        188,        188,        1,   276480, 0x0b752d28
0,        189,        189,        1,   276480, 0xaf82399a
0,        190,        190,        1,   276480, 0x7ce5f23c
0,        191,        191,        1,   276480, 0xad135d0f
0,        192,        192,        1,   276480, 0x55dadd30
0,        193,        193,        1,   276480, 0x5aaa7519
0,        194,        194,        1,   276480, 0xe45a5599
0,        195,        195,        1,   276480, 0xc8e89913
0,        196,        196,        1,   276480, 0x2f447fd3
0,        197,        197,        1,   276480, 0x704411fb
0,        198,        198,        1,   276480, 0x9d7430a1
0,        199,        199,        1,   276480, 0x24dd5fd3
0,        200,        200,        1,   276480, 0x51cb657c
0,        201,        201,        1,   276480, 0x2c230702
0,        202,        202,        1,   276480, 0x4a4f76cd
0,        203,        203,        1,   276480, 0xdcd71e88
0,        204,        204,        1,   276480, 0x87160f99
0,        205,        205,        1,   276480, 0x27f54854
0,        206,        206,        1,   276480, 0x694d76e3
0,        207,        207,        1,   276480, 0xcbe93c19
0,        208,        208,        1,   276480, 0x50742e1b
0,        209,        209,        1,   276480, 0x525463e2
0,        210,        210,        1,   276480, 0x819898f9
0,        211,        211,        1,   276480, 0x08fac755
0,        212,        212,        1,   276480, 0x35c46927
0,        213,        213,        1,   276480, 0xeeed00fc
0,        214,        214,        1,   276480, 0xb6f99ee3
0,        215,        215,        1,   276480, 0xd87f4c73
0,        216,        216,        1,   276480, 0xde97d9fd
0,        217,        217,        1,   276480, 0xefc83107
0,        218,        218,        1,   276480, 0xbb22e024
0,        219,        219,        1,   276480, 0x53a7cfcb
0,        220,        220,        1,   276480, 0xbe1fbb19
0,        221,        221,        1,   276480, 0x300f922a
0,        222,        222,        1,   276480, 0x826fc3bd
0,        223,        223,        1,   276480, 0x679aa57a
0,        224,        224,        1,   276480, 0x5497097b
0,        225,        225,        1,   276480, 0x679a53f8
0,        226,        226,        1,   276480, 0x976c9e93
0,        227,        227,        1,   276480, 0xe80f87f2
0,        228,        228,        1,   276480, 0xdc2d7c6c
0,        229,        229,        1,   276480, 0xb194656e
0,        230,        230,        1,   276480, 0xf002c5ca
0,        231,        231,        1,   276480, 0x43fc1c64
0,        232,        232,        1,   276480, 0xf62d8581
0,        233,        233,        1,   276480, 0xb243dda5
0,        234,        234,        1,   276480, 0x1700efbb
0,        235,        235,        1,   276480, 0x9ebe6ba2
0,        236,        236,        1,   276480, 0x8f316c66
0,        237,        237,        1,   276480, 0x6348ecf5
0,        238,        238,        1,   276480, 0x34b5b78a
0,        239,        239,        1,   276480, 0xcbf66922
